<?xml version="1.0" encoding="UTF-8" standalone="no"?>
<svg
   xmlns:dc="http://purl.org/dc/elements/1.1/"
   xmlns:cc="http://creativecommons.org/ns#"
   xmlns:rdf="http://www.w3.org/1999/02/22-rdf-syntax-ns#"
   xmlns:svg="http://www.w3.org/2000/svg"
   xmlns="http://www.w3.org/2000/svg"
   xmlns:sodipodi="http://sodipodi.sourceforge.net/DTD/sodipodi-0.dtd"
   xmlns:inkscape="http://www.inkscape.org/namespaces/inkscape"
   viewBox="0 0 120 100"
   id="svg2"
   version="1.1"
   inkscape:version="0.91 r13725"
   sodipodi:docname="logo_color.svg">
  <metadata
     id="metadata8">
    <rdf:RDF>
      <cc:Work
         rdf:about="">
        <dc:format>image/svg+xml</dc:format>
        <dc:type
           rdf:resource="http://purl.org/dc/dcmitype/StillImage" />
        <dc:title></dc:title>
      </cc:Work>
    </rdf:RDF>
  </metadata>
  <defs
     id="defs6" />
  <sodipodi:namedview
     pagecolor="#ffffff"
     bordercolor="#666666"
     borderopacity="1"
     objecttolerance="10"
     gridtolerance="10"
     guidetolerance="10"
     inkscape:pageopacity="0"
     inkscape:pageshadow="2"
     inkscape:window-width="3840"
     inkscape:window-height="2136"
     id="namedview4"
     showgrid="false"
     inkscape:zoom="2.36"
     inkscape:cx="60"
     inkscape:cy="50"
     inkscape:window-x="0"
     inkscape:window-y="24"
     inkscape:window-maximized="1"
     inkscape:current-layer="svg2" />
  <path
     style="opacity:1;fill:#aa8800;fill-rule:evenodd;stroke:none;stroke-width:1px;stroke-linecap:butt;stroke-linejoin:miter;stroke-opacity:1"
     d="m 23.353421,55.481032 0,20.50391 -0.0781,-0.0332 0,0.21289 0.0449,-0.11719 14.52735,-4.26953 0.0664,-15.23047 -14.56054,-1.06641 z"
     id="path4164-7-0-6"
     inkscape:connector-curvature="0" />
  <path
     inkscape:connector-curvature="0"
     style="opacity:1;fill:#aa8800;fill-rule:evenodd;stroke:none;stroke-width:1px;stroke-linecap:butt;stroke-linejoin:miter;stroke-opacity:1"
     d="m 23.635121,26.175272 0,19.51758 14.64257,-1.07031 -0.0547,-12.625 -14.58789,-5.82227 z"
     id="path4164-6" />
  <path
     style="opacity:1;fill:#aa8800;fill-rule:evenodd;stroke:none;stroke-width:1px;stroke-linecap:butt;stroke-linejoin:miter;stroke-opacity:1"
     d="m 80.867295,30.483002 -0.0371,9.24218 13.96094,-5.72656 -13.92383,-3.51562 z"
     id="path4164-5-7"
     inkscape:connector-curvature="0" />
  <path
     style="opacity:1;fill:#806600;fill-rule:evenodd;stroke:none;stroke-width:1px;stroke-linecap:butt;stroke-linejoin:miter;stroke-opacity:1"
     d="m 94.790845,34.042992 -13.96093,5.72656 -0.0176,4.08203 14.10742,1.07032 0,-10.84571 -0.12891,-0.0332 z"
     id="path4164-5-2"
     inkscape:connector-curvature="0" />
  <path
     style="opacity:1;fill:#aa8800;fill-rule:evenodd;stroke:none;stroke-width:1px;stroke-linecap:butt;stroke-linejoin:miter;stroke-opacity:1"
     d="m 81.028275,70.387222 -0.0371,-9.24218 13.96094,5.72656 -13.92383,3.51562 z"
     id="path4164-5-7-2"
     inkscape:connector-curvature="0" />
  <path
     style="opacity:1;fill:#806600;fill-rule:evenodd;stroke:none;stroke-width:1px;stroke-linecap:butt;stroke-linejoin:miter;stroke-opacity:1"
     d="m 94.951825,66.827232 -13.96093,-5.72656 -0.0176,-4.08203 14.10742,-1.07032 0,10.84571 -0.12891,0.0332 z"
     id="path4164-5-2-3"
     inkscape:connector-curvature="0" />
  <path
     style="opacity:1;fill:#ffdd55;fill-rule:evenodd;stroke:none;stroke-width:1px;stroke-linecap:butt;stroke-linejoin:miter;stroke-opacity:1"
     d="m 61.031311,10.111032 -22.93945,9.83008 0.10547,24.58984 -14.64258,1.07227 0,-19.43164 -12.52344,5.36718 0,39.10743 12.16602,5.28125 0,-20.50391 14.64258,1.07227 -0.10938,25.74218 23.47852,10.193364 0.13476,-0.0703 0,-82.123054 -0.3125,-0.12695 z"
     id="path4147-9-7"
     inkscape:connector-curvature="0" />
  <path
     style="opacity:1;fill:#d4aa00;fill-rule:evenodd;stroke:none;stroke-width:1px;stroke-linecap:butt;stroke-linejoin:miter;stroke-opacity:1"
     d="m 61.360211,10.297952 0,82.123044 48.794919,-25.107424 0,-22.14258 -6.25,0 0,-17.67968 -42.544919,-17.19336 z m 19.410164,20.07812 14.05273,3.54883 0,10.8457 -14.10742,-1.07031 0.0547,-13.32422 z m 14.26171,25.50195 0,10.84571 -14.05273,3.54882 -0.0547,-13.32421 14.10742,-1.07032 z"
     id="path4147-9-7-5"
     inkscape:connector-curvature="0" />
</svg>
